<?xml version="1.0" encoding="UTF-8"?><svg id="a" xmlns="http://www.w3.org/2000/svg" viewBox="0 0 993.42 325.33"><defs><style>.c{fill:#ec008c;}.d{fill:#f49ac1;}.e{fill:#92278f;}</style></defs><path class="d" d="M272.36,85.48c-3.5-3.85-7.85-8.63-10.94-15.81-6.59-15.32-15.03-20.99-20.94-23.05-2.29-.8-4.61-1.19-6.91-1.19-3.4,0-6.76.87-9.95,2.59-3.41,1.84-4.68,5.19-5.15,7.68l-.06.24-6.17,19.21c7.82,2.22,15.4,6.54,21.79,12.93,5.69,5.69,9.74,12.32,12.13,19.23l18.38-4.04h.17c4.06-.2,7.45-1.7,10.08-4.46,4.95-5.22,2.94-7.43-2.42-13.32Z"/><path class="c" d="M231.21,90.9c-16.28-16.28-40.94-18.12-54.97-4.09l-77.34,77.34h0c3.73-1.2,7.66-1.82,11.66-1.87,0,0,.02,0,.03,0,1.99-.02,3.99.09,6,.34.03,0,.07,0,.1.01.95.12,1.91.28,2.86.46.05.01.11.02.16.03.97.19,1.95.42,2.91.68.07.02.13.04.2.06.88.24,1.76.51,2.64.8.12.04.25.08.38.12.93.32,1.85.67,2.77,1.04.08.04.17.07.25.11.82.34,1.63.71,2.44,1.11.17.08.35.17.52.25.88.44,1.74.9,2.6,1.39.09.05.17.1.26.15.77.45,1.52.92,2.27,1.42.2.13.39.26.59.39.82.56,1.63,1.13,2.43,1.74.06.05.12.1.18.14.74.57,1.46,1.17,2.17,1.78.2.17.39.34.59.52.76.68,1.51,1.37,2.25,2.1,8.61,8.61,13.79,19.62,14.6,31.02.05.69.08,1.38.1,2.06,0,.31,0,.62,0,.93,0,.36,0,.72,0,1.08,0,.41-.03.82-.06,1.23-.01.25-.02.49-.04.74-.03.48-.08.95-.13,1.42-.02.17-.03.33-.05.5-.06.52-.14,1.04-.22,1.56-.02.1-.03.21-.05.31-.09.56-.2,1.11-.32,1.66-.01.06-.02.11-.04.17-.13.58-.26,1.15-.42,1.72,0,.02-.01.04-.02.06-.16.59-.33,1.18-.52,1.76l77.29-77.29c14.03-14.03,12.19-38.69-4.09-54.97Z"/><path class="e" d="M155.76,208.25c-.74-10.44-5.51-20.55-13.43-28.47-8.93-8.93-20.39-13.52-31.23-13.52-8.91,0-17.41,3.1-23.74,9.43-7.68,7.68-10.59,18.54-9,29.47l26.23-6c5.5-1.26,11.08.46,14.92,4.61,3.84,4.14,5.12,9.84,3.44,15.23l-7.64,24.5c1.53.28,3.06.49,4.61.6,10.33.73,19.74-2.59,26.5-9.34s10.08-16.17,9.35-26.5Z"/><path class="e" d="M105.88,259.93c1.29-10.48-6.18-22.67-14.16-30.1-9.87-9.2-21.89-16.22-31.56-16.22-4.29,0-8.12,1.38-11.1,4.58-4.48,4.81-5.72,12.07-3.15,18.5,2.83,7.1,9.6,11.48,18.56,12.02,14.8.9,21.19,9.05,25.85,15,4.28,5.46,5.98,7.22,10.33,4.82,3.69-2.04,4.88-5.8,5.22-8.59Z"/><path class="d" d="M116.57,206.48c-2.85-3.08-7-4.36-11.09-3.42l-35.66,8.16c7.67,2.49,16.12,7.77,24.61,15.69,7.37,6.87,12.54,15.29,14.59,23.29l10.1-32.39c1.25-4.01.29-8.24-2.56-11.32Z"/><path class="d" d="M361.52,202.39c-3.32,2.73-7.29,4.87-11.92,6.41-4.63,1.54-9.25,2.31-13.88,2.31-7.95,0-14.98-1.6-21.08-4.8-6.11-3.2-10.88-7.71-14.32-13.52-3.44-5.81-5.16-12.63-5.16-20.46s1.84-14.62,5.52-20.37c3.68-5.75,8.45-10.2,14.32-13.35,5.87-3.14,12.25-4.71,19.13-4.71,5.81,0,11.06.8,15.75,2.4,4.68,1.6,8.75,3.89,12.19,6.85l-8.36,10.68c-2.02-1.54-4.6-2.99-7.74-4.36-3.14-1.36-6.61-2.05-10.41-2.05-4.39,0-8.39,1.1-12.01,3.29-3.62,2.2-6.47,5.16-8.54,8.9-2.08,3.74-3.11,7.98-3.11,12.72s1.07,8.84,3.2,12.63c2.14,3.8,5.1,6.82,8.9,9.07,3.79,2.25,8.18,3.38,13.17,3.38,3.08,0,5.96-.47,8.63-1.42,2.67-.95,5.07-2.25,7.21-3.91l8.54,10.32Z"/><path class="c" d="M397.64,135.67l1.6,21.35-.71-3.03c1.9-4.39,4.63-8.18,8.18-11.39,3.56-3.2,7.35-5.63,11.39-7.3,4.03-1.66,7.47-2.55,10.32-2.67l-.71,16.72c-5.69-.47-10.65.56-14.86,3.11-4.21,2.55-7.53,5.87-9.96,9.96-2.43,4.09-3.65,8.51-3.65,13.26v33.63h-16.55v-73.66h14.95Z"/><path class="c" d="M480.38,211.11c-6.88,0-13.14-1.48-18.77-4.45-5.63-2.96-10.11-7.32-13.43-13.08-3.32-5.75-4.98-12.78-4.98-21.08s1.72-15.42,5.16-21.35c3.44-5.93,8.07-10.5,13.88-13.7,5.81-3.2,12.16-4.8,19.04-4.8s12.72,1.57,17.53,4.71c4.8,3.14,8.39,6.85,10.76,11.12l-1.07,2.67,1.6-15.48h15.3v73.66h-16.55v-19.22l1.96,4.27c-.59,1.19-1.72,2.7-3.38,4.54-1.66,1.84-3.77,3.71-6.32,5.6-2.55,1.9-5.55,3.47-8.98,4.71-3.44,1.25-7.36,1.87-11.74,1.87ZM484.83,197.41c4.15,0,7.89-.77,11.21-2.31,3.32-1.54,6.08-3.74,8.27-6.58,2.19-2.85,3.71-6.17,4.54-9.96v-14.41c-.95-3.56-2.61-6.67-4.98-9.34-2.37-2.67-5.22-4.74-8.54-6.23-3.32-1.48-6.94-2.22-10.85-2.22-4.51,0-8.6,1.07-12.28,3.2-3.68,2.13-6.61,5.1-8.81,8.9-2.2,3.8-3.29,8.25-3.29,13.34,0,4.75,1.13,9.07,3.38,12.99,2.25,3.91,5.28,7,9.07,9.25,3.79,2.25,7.89,3.38,12.28,3.38Z"/><path class="c" d="M613.82,202.39c-3.32,2.73-7.29,4.87-11.92,6.41-4.63,1.54-9.25,2.31-13.88,2.31-7.95,0-14.98-1.6-21.08-4.8-6.11-3.2-10.88-7.71-14.32-13.52-3.44-5.81-5.16-12.63-5.16-20.46s1.84-14.62,5.52-20.37c3.68-5.75,8.45-10.2,14.32-13.35,5.87-3.14,12.25-4.71,19.13-4.71,5.81,0,11.06.8,15.75,2.4,4.68,1.6,8.75,3.89,12.19,6.85l-8.36,10.68c-2.02-1.54-4.6-2.99-7.74-4.36-3.14-1.36-6.61-2.05-10.41-2.05-4.39,0-8.39,1.1-12.01,3.29-3.62,2.2-6.47,5.16-8.54,8.9-2.08,3.74-3.11,7.98-3.11,12.72s1.07,8.84,3.2,12.63c2.14,3.8,5.1,6.82,8.9,9.07,3.79,2.25,8.18,3.38,13.17,3.38,3.08,0,5.96-.47,8.63-1.42,2.67-.95,5.07-2.25,7.21-3.91l8.54,10.32Z"/><path class="c" d="M634.99,209.33V71.62h16.72v137.71h-16.72ZM646.56,185.84l-1.6-16.01,44.66-35.76,10.14,8.72-53.2,43.06ZM669.69,160.4l33.63,48.93h-19.39l-25.44-39.5,11.21-9.43Z"/><path class="c" d="M757.94,211.11c-8.42,0-15.66-1.69-21.71-5.07s-10.74-8.01-14.06-13.88c-3.32-5.87-4.98-12.6-4.98-20.19s1.87-13.82,5.6-19.75c3.74-5.93,8.69-10.68,14.86-14.23,6.17-3.56,13.05-5.34,20.64-5.34,9.72,0,17.79,2.85,24.2,8.54,6.4,5.69,10.79,13.52,13.17,23.49l-60.85,21.35-3.91-9.79,49.64-18.33-3.38,2.49c-1.42-3.91-3.8-7.3-7.12-10.14-3.32-2.85-7.65-4.27-12.99-4.27-4.51,0-8.51,1.07-12.01,3.2-3.5,2.14-6.26,5.07-8.27,8.81-2.02,3.74-3.03,8.1-3.03,13.08s1.04,9.43,3.11,13.34c2.07,3.91,4.98,6.97,8.72,9.16,3.74,2.2,7.98,3.29,12.72,3.29,3.2,0,6.32-.59,9.34-1.78,3.02-1.18,5.9-2.73,8.63-4.63l7.47,12.28c-3.68,2.49-7.8,4.51-12.37,6.05-4.57,1.54-9.05,2.31-13.43,2.31Z"/><path class="c" d="M831.06,135.67l1.6,21.35-.71-3.03c1.9-4.39,4.63-8.18,8.18-11.39,3.56-3.2,7.35-5.63,11.39-7.3,4.03-1.66,7.47-2.55,10.32-2.67l-.71,16.72c-5.69-.47-10.65.56-14.86,3.11-4.21,2.55-7.53,5.87-9.96,9.96-2.43,4.09-3.65,8.51-3.65,13.26v33.63h-16.55v-73.66h14.95Z"/><path class="c" d="M903.83,210.75c-5.22,0-10.29-.92-15.21-2.76-4.92-1.84-8.99-4.6-12.19-8.27l6.94-9.61c3.2,2.97,6.4,5.19,9.61,6.67,3.2,1.48,6.4,2.22,9.61,2.22,2.37,0,4.56-.29,6.58-.89,2.01-.59,3.65-1.6,4.89-3.02,1.25-1.42,1.87-3.26,1.87-5.52,0-2.73-.86-4.83-2.58-6.32-1.72-1.48-3.89-2.7-6.49-3.65-2.61-.95-5.46-1.84-8.54-2.67-6.05-2.02-10.67-4.8-13.88-8.36-3.2-3.56-4.8-7.89-4.8-12.99,0-3.91.98-7.56,2.94-10.94s4.89-6.17,8.81-8.36c3.91-2.19,8.66-3.29,14.23-3.29,5.1,0,9.67.62,13.7,1.87,4.03,1.25,7.83,3.35,11.39,6.32l-6.58,10.32c-2.14-2.25-4.66-3.94-7.56-5.07-2.91-1.13-5.55-1.69-7.92-1.69-2.14,0-4.12.33-5.96.98-1.84.65-3.32,1.6-4.45,2.85-1.13,1.25-1.69,2.82-1.69,4.71-.12,2.49.68,4.48,2.4,5.96,1.72,1.49,3.88,2.7,6.49,3.65,2.61.95,5.28,1.9,8.01,2.85,3.56,1.07,6.76,2.49,9.61,4.27s5.13,3.98,6.85,6.58c1.72,2.61,2.58,5.87,2.58,9.79,0,4.39-1.04,8.45-3.11,12.19-2.08,3.74-5.22,6.7-9.43,8.9-4.21,2.19-9.58,3.29-16.1,3.29Z"/></svg>